<svg width="60" height="60" viewBox="0 0 60 60" fill="none" xmlns="http://www.w3.org/2000/svg">
<path d="M37.1089 40.0104L37.1119 40.0085C37.5177 39.7525 38.0085 39.6683 38.4764 39.7742C38.9443 39.8802 39.351 40.1677 39.6069 40.5735C39.8628 40.9792 39.9471 41.4701 39.8411 41.938C39.7353 42.4053 39.4484 42.8116 39.0433 43.0675C36.3301 44.7587 33.1971 45.6552 30 45.6552C26.803 45.6552 23.67 44.7587 20.9568 43.0676C20.5517 42.8116 20.2647 42.4054 20.1589 41.938C20.0529 41.4701 20.1372 40.9792 20.3931 40.5735C20.649 40.1677 21.0557 39.8802 21.5236 39.7742C21.9915 39.6683 22.4823 39.7525 22.8881 40.0085L22.8911 40.0104C25.0256 41.3351 27.4878 42.0371 30 42.0371C32.5122 42.0371 34.9744 41.3351 37.1089 40.0104ZM55.8846 30.0001V29.9994C55.8764 23.3362 53.3021 16.9321 48.6963 12.117C44.0905 7.30195 37.807 4.44587 31.1507 4.14187L30.8785 4.12943L30.7205 4.35148C27.296 9.16464 27.1923 13.7509 27.1923 13.8462C27.1923 14.5908 27.4881 15.3049 28.0147 15.8315C28.5412 16.358 29.2554 16.6538 30 16.6538C30.7447 16.6538 31.4588 16.358 31.9853 15.8315C32.5119 15.3049 32.8077 14.5908 32.8077 13.8462C32.8077 13.3667 32.9981 12.9069 33.3372 12.5679C33.6762 12.2289 34.136 12.0385 34.6154 12.0385C35.0948 12.0385 35.5546 12.2289 35.8936 12.5679C36.2326 12.9069 36.4231 13.3667 36.4231 13.8462C36.4231 15.5497 35.7464 17.1834 34.5418 18.388C33.3372 19.5925 31.7035 20.2692 30 20.2692C28.2965 20.2692 26.6628 19.5925 25.4582 18.388C24.2536 17.1834 23.5769 15.5497 23.5769 13.8462C23.5769 13.6817 23.6081 9.85364 25.9627 5.23778L26.4204 4.34057L25.429 4.51843C20.5826 5.38793 16.0847 7.62169 12.4631 10.9576C8.84155 14.2935 6.24657 18.5931 4.98268 23.352C3.7188 28.1108 3.83844 33.1314 5.32757 37.8246C6.8167 42.5179 9.61354 46.689 13.3899 49.8486C17.1662 53.0082 21.7654 55.0252 26.6478 55.6629C31.5301 56.3005 36.4931 55.5324 40.9543 53.4487C45.4154 51.365 49.1897 48.0521 51.8343 43.8987C54.4788 39.7454 55.8839 34.9239 55.8846 30.0001ZM19.6154 32.9615C19.0297 32.9615 18.4571 32.7878 17.9701 32.4624C17.483 32.137 17.1034 31.6745 16.8793 31.1333C16.6551 30.5922 16.5965 29.9967 16.7108 29.4222C16.825 28.8477 17.1071 28.32 17.5213 27.9059C17.9354 27.4917 18.4631 27.2096 19.0376 27.0954C19.6121 26.9811 20.2076 27.0397 20.7487 27.2639C21.2899 27.488 21.7524 27.8676 22.0778 28.3547C22.4032 28.8417 22.5769 29.4143 22.5769 30C22.5769 30.7854 22.2649 31.5387 21.7095 32.0941C21.1541 32.6495 20.4008 32.9615 19.6154 32.9615ZM38.7393 27.5376C39.2263 27.2121 39.7989 27.0385 40.3846 27.0385C41.1701 27.0385 41.9233 27.3505 42.4787 27.9059C43.0341 28.4613 43.3462 29.2145 43.3462 30C43.3462 30.5857 43.1725 31.1583 42.847 31.6453C42.5216 32.1324 42.0591 32.5119 41.5179 32.7361C40.9768 32.9602 40.3813 33.0189 39.8069 32.9046C39.2324 32.7904 38.7047 32.5083 38.2905 32.0941C37.8763 31.6799 37.5943 31.1522 37.48 30.5778C37.3657 30.0033 37.4244 29.4078 37.6485 28.8667C37.8727 28.3255 38.2523 27.863 38.7393 27.5376ZM59.5 30.0005C59.4999 35.8349 57.7698 41.5382 54.5284 46.3893C51.2869 51.2406 46.6796 55.0216 41.2892 57.2544C35.8987 59.4872 29.9673 60.0714 24.2448 58.9332C18.5224 57.7949 13.266 54.9853 9.14036 50.8596C5.01471 46.734 2.20511 41.4776 1.06685 35.7552C-0.0714162 30.0327 0.512782 24.1013 2.74557 18.7108C4.97835 13.3204 8.75944 8.71315 13.6107 5.47165C18.4619 2.2302 24.1653 0.500054 29.9997 0.5C37.8211 0.508326 45.3198 3.61905 50.8504 9.14962C56.381 14.6803 59.4917 22.179 59.5 30.0005Z" fill="#677294" stroke="#677294"/>
</svg>
