<svg width="58" height="60" viewBox="0 0 58 60" fill="none" xmlns="http://www.w3.org/2000/svg">
<mask id="path-1-inside-1_190_18412" fill="white">
<path d="M19.3333 0V4.8C22.9487 4.8 24.8868 6.048 25.8293 7.4256C15.4763 8.8176 7.30558 16.9008 5.51242 27.1488C2.47708 28.008 0 30.3264 0 33.6C0 36.876 2.47467 39.192 5.51 40.0512C7.48683 51.3288 17.1583 60 29 60C40.8417 60 50.5156 51.336 52.49 40.0488C55.5229 39.192 58 36.8784 58 33.6C58 30.432 55.6728 28.176 52.7897 27.2256C50.9772 17.7264 43.8045 10.0848 34.5124 7.8744C34.8314 7.4664 35.1577 7.2024 36.2524 7.2024V2.4C33.6134 2.4 31.5302 3.7104 30.4379 5.2512C30.3654 5.3472 30.3509 5.4528 30.2857 5.5512C28.4925 2.4144 24.6573 0 19.3333 0ZM29 12C38.8914 12 47.038 19.4544 48.3333 29.1L48.6354 31.2H50.75C52.0913 31.2 53.1667 32.268 53.1667 33.6C53.1667 34.932 52.0913 36 50.75 36H48.3333L48.1062 38.1C47.0283 47.712 38.8914 55.2 29 55.2C19.1086 55.2 10.9717 47.712 9.89383 38.1L9.66667 36H7.25C5.90875 36 4.83333 34.932 4.83333 33.6C4.83333 32.268 5.90875 31.2 7.25 31.2H9.66667L9.89383 29.1C10.9717 19.488 19.1086 12 29 12ZM20.5417 31.2C20.0655 31.2002 19.594 31.2935 19.1541 31.4746C18.7142 31.6557 18.3145 31.9211 17.9779 32.2556C17.6413 32.5901 17.3743 32.9872 17.1922 33.4242C17.0101 33.8612 16.9165 34.3295 16.9167 34.8024C16.9168 35.2753 17.0108 35.7436 17.1932 36.1804C17.3755 36.6173 17.6428 37.0142 17.9796 37.3485C18.3164 37.6828 18.7163 37.9479 19.1563 38.1287C19.5963 38.3096 20.0679 38.4026 20.5441 38.4024C21.5058 38.4021 22.428 38.0224 23.1078 37.3468C23.7877 36.6712 24.1694 35.7551 24.1691 34.8C24.1688 33.8449 23.7864 32.9291 23.1061 32.2539C22.4259 31.5788 21.5034 31.1997 20.5417 31.2ZM37.4583 31.2C36.9821 31.2002 36.5106 31.2935 36.0707 31.4746C35.6308 31.6557 35.2312 31.9211 34.8946 32.2556C34.558 32.5901 34.291 32.9872 34.1089 33.4242C33.9268 33.8612 33.8332 34.3295 33.8333 34.8024C33.8335 35.2753 33.9274 35.7436 34.1098 36.1804C34.2922 36.6173 34.5594 37.0142 34.8963 37.3485C35.2331 37.6828 35.633 37.9479 36.073 38.1287C36.513 38.3096 36.9845 38.4026 37.4607 38.4024C38.4225 38.4021 39.3447 38.0224 40.0245 37.3468C40.7043 36.6712 41.0861 35.7551 41.0858 34.8C41.0854 33.8449 40.7031 32.9291 40.0228 32.2539C39.3425 31.5788 38.4201 31.1997 37.4583 31.2Z"/>
</mask>
<path d="M19.3333 0V4.8C22.9487 4.8 24.8868 6.048 25.8293 7.4256C15.4763 8.8176 7.30558 16.9008 5.51242 27.1488C2.47708 28.008 0 30.3264 0 33.6C0 36.876 2.47467 39.192 5.51 40.0512C7.48683 51.3288 17.1583 60 29 60C40.8417 60 50.5156 51.336 52.49 40.0488C55.5229 39.192 58 36.8784 58 33.6C58 30.432 55.6728 28.176 52.7897 27.2256C50.9772 17.7264 43.8045 10.0848 34.5124 7.8744C34.8314 7.4664 35.1577 7.2024 36.2524 7.2024V2.4C33.6134 2.4 31.5302 3.7104 30.4379 5.2512C30.3654 5.3472 30.3509 5.4528 30.2857 5.5512C28.4925 2.4144 24.6573 0 19.3333 0ZM29 12C38.8914 12 47.038 19.4544 48.3333 29.1L48.6354 31.2H50.75C52.0913 31.2 53.1667 32.268 53.1667 33.6C53.1667 34.932 52.0913 36 50.75 36H48.3333L48.1062 38.1C47.0283 47.712 38.8914 55.2 29 55.2C19.1086 55.2 10.9717 47.712 9.89383 38.1L9.66667 36H7.25C5.90875 36 4.83333 34.932 4.83333 33.6C4.83333 32.268 5.90875 31.2 7.25 31.2H9.66667L9.89383 29.1C10.9717 19.488 19.1086 12 29 12ZM20.5417 31.2C20.0655 31.2002 19.594 31.2935 19.1541 31.4746C18.7142 31.6557 18.3145 31.9211 17.9779 32.2556C17.6413 32.5901 17.3743 32.9872 17.1922 33.4242C17.0101 33.8612 16.9165 34.3295 16.9167 34.8024C16.9168 35.2753 17.0108 35.7436 17.1932 36.1804C17.3755 36.6173 17.6428 37.0142 17.9796 37.3485C18.3164 37.6828 18.7163 37.9479 19.1563 38.1287C19.5963 38.3096 20.0679 38.4026 20.5441 38.4024C21.5058 38.4021 22.428 38.0224 23.1078 37.3468C23.7877 36.6712 24.1694 35.7551 24.1691 34.8C24.1688 33.8449 23.7864 32.9291 23.1061 32.2539C22.4259 31.5788 21.5034 31.1997 20.5417 31.2ZM37.4583 31.2C36.9821 31.2002 36.5106 31.2935 36.0707 31.4746C35.6308 31.6557 35.2312 31.9211 34.8946 32.2556C34.558 32.5901 34.291 32.9872 34.1089 33.4242C33.9268 33.8612 33.8332 34.3295 33.8333 34.8024C33.8335 35.2753 33.9274 35.7436 34.1098 36.1804C34.2922 36.6173 34.5594 37.0142 34.8963 37.3485C35.2331 37.6828 35.633 37.9479 36.073 38.1287C36.513 38.3096 36.9845 38.4026 37.4607 38.4024C38.4225 38.4021 39.3447 38.0224 40.0245 37.3468C40.7043 36.6712 41.0861 35.7551 41.0858 34.8C41.0854 33.8449 40.7031 32.9291 40.0228 32.2539C39.3425 31.5788 38.4201 31.1997 37.4583 31.2Z" fill="#677294"/>
<path d="M19.3333 0V-1H18.3333V0H19.3333ZM19.3333 4.8H18.3333V5.8H19.3333V4.8ZM25.8293 7.4256L25.9626 8.41668L27.5711 8.20041L26.6547 6.86094L25.8293 7.4256ZM5.51242 27.1488L5.78478 28.111L6.38918 27.9399L6.49745 27.3212L5.51242 27.1488ZM5.51 40.0512L6.49498 39.8785L6.38657 39.26L5.78237 39.089L5.51 40.0512ZM52.49 40.0488L52.2181 39.0865L51.6133 39.2573L51.505 39.8765L52.49 40.0488ZM52.7897 27.2256L51.8074 27.413L51.9177 27.9911L52.4766 28.1753L52.7897 27.2256ZM34.5124 7.8744L33.7246 7.25846L32.7645 8.4865L34.281 8.84725L34.5124 7.8744ZM36.2524 7.2024V8.2024H37.2524V7.2024H36.2524ZM36.2524 2.4H37.2524V1.4H36.2524V2.4ZM30.4379 5.2512L31.2359 5.85386L31.245 5.84184L31.2537 5.82955L30.4379 5.2512ZM30.2857 5.5512L29.4175 6.04749L30.2226 7.45581L31.1191 6.10385L30.2857 5.5512ZM48.3333 29.1L47.3422 29.2331L47.3435 29.2424L48.3333 29.1ZM48.6354 31.2L47.6456 31.3424L47.769 32.2H48.6354V31.2ZM48.3333 36V35H47.4357L47.3391 35.8925L48.3333 36ZM48.1062 38.1L49.0999 38.2114L49.1004 38.2075L48.1062 38.1ZM9.89383 38.1L8.89963 38.2075L8.90006 38.2114L9.89383 38.1ZM9.66667 36L10.6609 35.8925L10.5643 35H9.66667V36ZM9.66667 31.2V32.2H10.5643L10.6609 31.3075L9.66667 31.2ZM9.89383 29.1L8.90005 28.9886L8.89963 28.9925L9.89383 29.1ZM20.5417 31.2L20.542 32.2L20.5417 31.2ZM20.5441 38.4024L20.5438 37.4024L20.5441 38.4024ZM37.4583 31.2L37.4587 32.2L37.4583 31.2ZM37.4607 38.4024L37.4604 37.4024L37.4607 38.4024ZM18.3333 0V4.8H20.3333V0H18.3333ZM19.3333 5.8C22.7055 5.8 24.2921 6.94976 25.004 7.99026L26.6547 6.86094C25.4815 5.14624 23.1918 3.8 19.3333 3.8V5.8ZM25.6961 6.43452C14.8985 7.88629 6.39348 16.3116 4.52738 26.9764L6.49745 27.3212C8.21769 17.49 16.0541 9.74891 25.9626 8.41668L25.6961 6.43452ZM5.24005 26.1866C1.92995 27.1236 -1 29.7356 -1 33.6H1C1 30.9172 3.02422 28.8924 5.78478 28.111L5.24005 26.1866ZM-1 33.6C-1 37.4665 1.92724 40.0763 5.23764 41.0134L5.78237 39.089C3.0221 38.3077 1 36.2855 1 33.6H-1ZM4.52502 40.2239C6.58165 51.9567 16.6495 61 29 61V59C17.6671 59 8.39202 50.7009 6.49498 39.8785L4.52502 40.2239ZM29 61C41.3501 61 51.4209 51.9642 53.475 40.2211L51.505 39.8765C49.6103 50.7078 40.3332 59 29 59V61ZM52.7619 41.0111C56.0698 40.0767 59 37.4694 59 33.6H57C57 36.2874 54.9761 38.3073 52.2181 39.0865L52.7619 41.0111ZM59 33.6C59 29.8592 56.2435 27.3112 53.1027 26.2759L52.4766 28.1753C55.102 29.0408 57 31.0048 57 33.6H59ZM53.7719 27.0382C51.8877 17.163 44.4296 9.20561 34.7438 6.90155L34.281 8.84725C43.1794 10.964 50.0666 18.2898 51.8074 27.413L53.7719 27.0382ZM35.3002 8.49034C35.4167 8.34138 35.4583 8.31709 35.5041 8.2963C35.578 8.26285 35.7715 8.2024 36.2524 8.2024V6.2024C35.6386 6.2024 35.1216 6.27395 34.6789 6.4745C34.2082 6.68772 33.9272 6.99942 33.7246 7.25846L35.3002 8.49034ZM37.2524 7.2024V2.4H35.2524V7.2024H37.2524ZM36.2524 1.4C33.2774 1.4 30.895 2.87734 29.6221 4.67285L31.2537 5.82955C32.1655 4.54346 33.9494 3.4 36.2524 3.4V1.4ZM29.6399 4.64854C29.5187 4.80909 29.4561 4.96672 29.4342 5.02006C29.4025 5.09717 29.4196 5.04774 29.4523 4.99855L31.1191 6.10385C31.1716 6.02466 31.2087 5.95182 31.2345 5.89596C31.2576 5.8459 31.2783 5.79427 31.284 5.78054C31.3037 5.73248 31.2847 5.78931 31.2359 5.85386L29.6399 4.64854ZM31.1538 5.05491C29.1591 1.56544 24.966 -1 19.3333 -1V1C24.3485 1 27.8259 3.26336 29.4175 6.04749L31.1538 5.05491ZM29 13C38.3719 13 46.111 20.0652 47.3422 29.2331L49.3244 28.9669C47.965 18.8436 39.4109 11 29 11V13ZM47.3435 29.2424L47.6456 31.3424L49.6252 31.0576L49.3231 28.9576L47.3435 29.2424ZM48.6354 32.2H50.75V30.2H48.6354V32.2ZM50.75 32.2C51.5455 32.2 52.1667 32.8268 52.1667 33.6H54.1667C54.1667 31.7092 52.637 30.2 50.75 30.2V32.2ZM52.1667 33.6C52.1667 34.3732 51.5455 35 50.75 35V37C52.637 37 54.1667 35.4908 54.1667 33.6H52.1667ZM50.75 35H48.3333V37H50.75V35ZM47.3391 35.8925L47.112 37.9925L49.1004 38.2075L49.3275 36.1075L47.3391 35.8925ZM47.1124 37.9886C46.0904 47.1029 38.374 54.2 29 54.2V56.2C39.4089 56.2 47.9663 48.3211 49.0999 38.2114L47.1124 37.9886ZM29 54.2C19.626 54.2 11.9096 47.1029 10.8876 37.9886L8.90006 38.2114C10.0337 48.3211 18.5911 56.2 29 56.2V54.2ZM10.888 37.9925L10.6609 35.8925L8.67247 36.1075L8.89963 38.2075L10.888 37.9925ZM9.66667 35H7.25V37H9.66667V35ZM7.25 35C6.4545 35 5.83333 34.3732 5.83333 33.6H3.83333C3.83333 35.4908 5.363 37 7.25 37V35ZM5.83333 33.6C5.83333 32.8268 6.4545 32.2 7.25 32.2V30.2C5.363 30.2 3.83333 31.7092 3.83333 33.6H5.83333ZM7.25 32.2H9.66667V30.2H7.25V32.2ZM10.6609 31.3075L10.888 29.2075L8.89963 28.9925L8.67247 31.0925L10.6609 31.3075ZM10.8876 29.2114C11.9096 20.0971 19.626 13 29 13V11C18.5911 11 10.0337 18.8789 8.90006 28.9886L10.8876 29.2114ZM20.5413 30.2C19.9348 30.2002 19.334 30.319 18.7733 30.5499L19.5348 32.3993C19.8539 32.2679 20.1962 32.2001 20.542 32.2L20.5413 30.2ZM18.7733 30.5499C18.2126 30.7808 17.7028 31.1192 17.273 31.5463L18.6828 32.9649C18.9263 32.723 19.2157 32.5307 19.5348 32.3993L18.7733 30.5499ZM17.273 31.5463C16.8432 31.9734 16.502 32.4807 16.2692 33.0396L18.1153 33.8088C18.2466 33.4937 18.4393 33.2069 18.6828 32.9649L17.273 31.5463ZM16.2692 33.0396C16.0363 33.5984 15.9165 34.1975 15.9167 34.8027L17.9167 34.8021C17.9166 34.4614 17.984 34.124 18.1153 33.8088L16.2692 33.0396ZM15.9167 34.8027C15.9169 35.4079 16.0371 36.007 16.2703 36.5657L18.116 35.7952C17.9844 35.4801 17.9168 35.1427 17.9167 34.8021L15.9167 34.8027ZM16.2703 36.5657C16.5036 37.1243 16.8451 37.6315 17.2752 38.0583L18.684 36.6387C18.4404 36.3969 18.2475 36.1102 18.116 35.7952L16.2703 36.5657ZM17.2752 38.0583C17.7052 38.4851 18.2153 38.8232 18.7762 39.0537L19.5364 37.2038C19.2173 37.0726 18.9277 36.8805 18.684 36.6387L17.2752 38.0583ZM18.7762 39.0537C19.337 39.2842 19.9379 39.4026 20.5444 39.4024L20.5438 37.4024C20.1979 37.4025 19.8556 37.335 19.5364 37.2038L18.7762 39.0537ZM20.5444 39.4024C21.7691 39.402 22.9449 38.9185 23.8127 38.0561L22.403 36.6375C21.9111 37.1262 21.2425 37.4022 20.5438 37.4024L20.5444 39.4024ZM23.8127 38.0561C24.6808 37.1935 25.1695 36.0222 25.1691 34.7997L23.1691 34.8003C23.1693 35.488 22.8945 36.149 22.403 36.6375L23.8127 38.0561ZM25.1691 34.7997C25.1687 33.5771 24.6792 32.4062 23.8106 31.5441L22.4017 32.9637C22.8936 33.4519 23.1689 34.1127 23.1691 34.8003L25.1691 34.7997ZM23.8106 31.5441C22.9422 30.6823 21.7661 30.1996 20.5413 30.2L20.542 32.2C21.2407 32.1998 21.9096 32.4753 22.4017 32.9637L23.8106 31.5441ZM37.458 30.2C36.8514 30.2002 36.2507 30.319 35.69 30.5499L36.4515 32.3993C36.7706 32.2679 37.1128 32.2001 37.4587 32.2L37.458 30.2ZM35.69 30.5499C35.1293 30.7808 34.6194 31.1192 34.1897 31.5463L35.5995 32.9649C35.8429 32.723 36.1324 32.5307 36.4515 32.3993L35.69 30.5499ZM34.1897 31.5463C33.7599 31.9734 33.4187 32.4807 33.1858 33.0396L35.032 33.8088C35.1633 33.4937 35.356 33.2069 35.5995 32.9649L34.1897 31.5463ZM33.1858 33.0396C32.953 33.5984 32.8331 34.1975 32.8333 34.8027L34.8333 34.8021C34.8332 34.4614 34.9007 34.124 35.032 33.8088L33.1858 33.0396ZM32.8333 34.8027C32.8335 35.4079 32.9538 36.007 33.187 36.5657L35.0326 35.7952C34.9011 35.4801 34.8334 35.1427 34.8333 34.8021L32.8333 34.8027ZM33.187 36.5657C33.4202 37.1243 33.7618 37.6315 34.1919 38.0583L35.6007 36.6387C35.3571 36.3969 35.1642 36.1102 35.0326 35.7952L33.187 36.5657ZM34.1919 38.0583C34.6219 38.4851 35.132 38.8232 35.6929 39.0537L36.4531 37.2038C36.1339 37.0726 35.8443 36.8805 35.6007 36.6387L34.1919 38.0583ZM35.6929 39.0537C36.2537 39.2842 36.8545 39.4026 37.4611 39.4024L37.4604 37.4024C37.1146 37.4025 36.7723 37.335 36.4531 37.2038L35.6929 39.0537ZM37.4611 39.4024C38.6858 39.402 39.8616 38.9185 40.7294 38.0561L39.3196 36.6375C38.8278 37.1262 38.1592 37.4022 37.4604 37.4024L37.4611 39.4024ZM40.7294 38.0561C41.5975 37.1935 42.0862 36.0222 42.0857 34.7997L40.0858 34.8003C40.086 35.488 39.8112 36.149 39.3196 36.6375L40.7294 38.0561ZM42.0857 34.7997C42.0853 33.5771 41.5959 32.4062 40.7272 31.5441L39.3184 32.9637C39.8103 33.4519 40.0855 34.1127 40.0858 34.8003L42.0857 34.7997ZM40.7272 31.5441C39.8588 30.6823 38.6827 30.1996 37.458 30.2L37.4587 32.2C38.1574 32.1998 38.8262 32.4753 39.3184 32.9637L40.7272 31.5441Z" fill="#677294" mask="url(#path-1-inside-1_190_18412)"/>
</svg>
