<svg width="94" height="60" viewBox="0 0 94 60" fill="none" xmlns="http://www.w3.org/2000/svg">
<path d="M42.9956 41.1982C47.0014 38.5234 50.0427 34.6267 51.6697 30.0842C53.2966 25.5418 53.4229 20.5948 52.0298 15.9748C50.6368 11.3548 47.7983 7.30703 43.9342 4.43016C40.0701 1.55328 35.3855 0 30.5732 0C25.7608 0 21.0763 1.55328 17.2122 4.43016C13.3481 7.30703 10.5096 11.3548 9.11654 15.9748C7.72348 20.5948 7.84976 25.5418 9.47672 30.0842C11.1037 34.6267 14.1449 38.5234 18.1508 41.1982C10.9046 43.8768 4.71626 48.8336 0.50905 55.3288C0.287933 55.6584 0.134345 56.0288 0.0572141 56.4185C-0.0199173 56.8082 -0.0190537 57.2093 0.0597546 57.5987C0.138563 57.988 0.293744 58.3578 0.516277 58.6864C0.738811 59.0151 1.02426 59.2961 1.35603 59.5131C1.68779 59.7302 2.05926 59.8789 2.44885 59.9507C2.83843 60.0224 3.23835 60.0158 3.62536 59.9312C4.01238 59.8466 4.37876 59.6857 4.70323 59.4578C5.02769 59.23 5.30376 58.9397 5.51538 58.6039C8.22922 54.4174 11.9427 50.9773 16.3187 48.5958C20.6947 46.2143 25.5945 44.9669 30.5732 44.9669C35.5519 44.9669 40.4517 46.2143 44.8276 48.5958C49.2036 50.9773 52.9172 54.4174 55.631 58.6039C56.0694 59.2573 56.7465 59.7115 57.5161 59.8682C58.2857 60.0249 59.0859 59.8716 59.7436 59.4413C60.4014 59.011 60.8639 58.3384 61.0311 57.5688C61.1983 56.7993 61.0569 55.9946 60.6373 55.3288C56.4301 48.8336 50.2417 43.8768 42.9956 41.1982ZM14.1345 22.4922C14.1345 19.2313 15.0986 16.0436 16.9049 13.3322C18.7112 10.6208 21.2786 8.50757 24.2824 7.25966C27.2861 6.01176 30.5914 5.68525 33.7802 6.32142C36.969 6.9576 39.8981 8.52789 42.1971 10.8337C44.4961 13.1396 46.0617 16.0774 46.696 19.2757C47.3303 22.4739 47.0048 25.789 45.7606 28.8018C44.5164 31.8145 42.4094 34.3895 39.706 36.2012C37.0027 38.0129 33.8245 38.9798 30.5732 38.9798C26.2149 38.9749 22.0365 37.2362 18.9547 34.1453C15.8729 31.0543 14.1394 26.8635 14.1345 22.4922ZM92.6442 59.4769C91.9803 59.9112 91.1716 60.0631 90.396 59.8994C89.6204 59.7356 88.9415 59.2696 88.5084 58.6039C85.7978 54.4149 82.0848 50.9733 77.7079 48.5928C73.331 46.2123 68.4296 44.9687 63.4506 44.9753C62.6579 44.9753 61.8977 44.6595 61.3371 44.0973C60.7766 43.5351 60.4617 42.7726 60.4617 41.9776C60.4617 41.1825 60.7766 40.42 61.3371 39.8579C61.8977 39.2957 62.6579 38.9798 63.4506 38.9798C65.8714 38.9776 68.2619 38.439 70.4512 37.4027C72.6405 36.3664 74.5745 34.8579 76.1152 32.985C77.6558 31.1121 78.765 28.921 79.3635 26.5683C79.962 24.2156 80.035 21.7594 79.5773 19.3751C79.1196 16.9909 78.1426 14.7374 76.7159 12.7758C75.2892 10.8141 73.4482 9.19275 71.3244 8.02747C69.2005 6.86219 66.8463 6.18178 64.4299 6.03484C62.0134 5.88791 59.5945 6.27808 57.3458 7.17749C56.9792 7.33645 56.5845 7.4201 56.1851 7.42348C55.7857 7.42687 55.3897 7.34992 55.0204 7.1972C54.6512 7.04447 54.3162 6.81906 54.0352 6.53428C53.7543 6.2495 53.5331 5.91114 53.3848 5.53918C53.2364 5.16722 53.1639 4.76921 53.1716 4.36867C53.1792 3.96813 53.2668 3.57318 53.4291 3.20716C53.5915 2.84115 53.8254 2.51149 54.1169 2.23767C54.4085 1.96384 54.7518 1.75141 55.1266 1.61292C60.2729 -0.445595 65.9969 -0.519672 71.1945 1.40497C76.392 3.32962 80.6948 7.11662 83.2727 12.0354C85.8506 16.9542 86.521 22.6562 85.1545 28.0415C83.7881 33.4268 80.4816 38.1137 75.873 41.1982C83.1191 43.8768 89.3075 48.8336 93.5147 55.3288C93.9476 55.9947 94.0992 56.8058 93.9359 57.5837C93.7727 58.3616 93.308 59.0426 92.6442 59.4769Z" fill="#677294"/>
</svg>
