<svg width="62" height="62" viewBox="0 0 62 62" fill="none" xmlns="http://www.w3.org/2000/svg">
<mask id="path-1-outside-1_600_1638" maskUnits="userSpaceOnUse" x="0" y="0" width="62" height="62" fill="black">
<rect fill="white" width="62" height="62"/>
<path fill-rule="evenodd" clip-rule="evenodd" d="M47.6667 17.6667C47.6667 26.8717 40.205 34.3333 31 34.3333C21.795 34.3333 14.3333 26.8717 14.3333 17.6667C14.3333 8.46167 21.795 1 31 1C40.205 1 47.6667 8.46167 47.6667 17.6667ZM44.3333 17.6667C44.3333 21.2029 42.9286 24.5943 40.4281 27.0948C37.9276 29.5952 34.5362 31 31 31C27.4638 31 24.0724 29.5952 21.5719 27.0948C19.0714 24.5943 17.6667 21.2029 17.6667 17.6667C17.6667 14.1304 19.0714 10.7391 21.5719 8.23858C24.0724 5.73809 27.4638 4.33333 31 4.33333C34.5362 4.33333 37.9276 5.73809 40.4281 8.23858C42.9286 10.7391 44.3333 14.1304 44.3333 17.6667ZM20.8567 39.0917L20.875 39.1283L21 39.3733H40.5817C40.9633 38.65 41.8283 37.4967 42.6667 37.6883C44.55 38.1167 46.4467 38.7133 48.2683 39.4483L48.3233 39.4217L48.3417 39.4583L48.355 39.4833C55.2133 42.27 61 46.9933 61 51.95V61H1V51.95C1 45.6583 10.3267 39.7383 19.3333 37.6883C20.0683 37.5217 20.505 38.3883 20.8567 39.0917ZM45.5067 41.9717C44.7917 41.7214 44.0685 41.4951 43.3383 41.2933L42.595 42.7067H18.9883L18.2983 41.395L17.6983 41.575C17.6867 41.685 17.6767 41.8083 17.6717 41.9483C17.65 42.5233 17.6933 43.205 17.7883 43.8983C17.8858 44.6215 18.0419 45.3355 18.255 46.0333C19.4258 46.172 20.5099 46.72 21.3159 47.5804C22.1218 48.4409 22.5978 49.5585 22.6598 50.7358C22.7218 51.9131 22.3657 53.0745 21.6545 54.0148C20.9433 54.9551 19.9228 55.6138 18.773 55.8747C17.6233 56.1355 16.4183 55.9817 15.371 55.4404C14.3236 54.8991 13.5013 54.0051 13.0491 52.9163C12.5969 51.8274 12.544 50.6139 12.8998 49.4899C13.2555 48.3658 13.997 47.4037 14.9933 46.7733L14.98 46.7267C14.7579 45.9474 14.5925 45.1531 14.485 44.35C14.4143 43.8369 14.3676 43.3208 14.345 42.8033C12.285 43.6833 10.3633 44.7467 8.75333 45.92C5.55 48.26 4.33333 50.4467 4.33333 51.95V57.6667H57.6667V51.95C57.6667 50.445 56.45 48.2583 53.2467 45.9217C51.8499 44.9173 50.3623 44.0458 48.8033 43.3183C48.7355 44.2216 48.5973 45.1182 48.39 46H49.3333C49.6428 46.0002 49.946 46.0865 50.2092 46.2493C50.4724 46.412 50.685 46.6449 50.8233 46.9217L52.49 50.255C52.6067 50.4867 52.6667 50.7417 52.6667 51V54.3333C52.6667 54.7754 52.4911 55.1993 52.1785 55.5118C51.866 55.8244 51.442 56 51 56H47.6667V52.6667H49.3333V51.3933L48.3033 49.3333H43.6967L42.6667 51.3933V52.6667H44.3333V56H41C40.558 56 40.134 55.8244 39.8215 55.5118C39.5089 55.1993 39.3333 54.7754 39.3333 54.3333V51C39.3333 50.7417 39.3933 50.4867 39.51 50.255L41.1767 46.9217C41.315 46.6449 41.5276 46.412 41.7908 46.2493C42.0539 46.0865 42.3572 46.0002 42.6667 46H44.9367C44.9567 45.9333 44.9783 45.8667 44.9983 45.7933C45.155 45.2583 45.295 44.5933 45.39 43.9C45.4833 43.2133 45.5267 42.5417 45.5067 41.9717ZM19.3333 51C19.3333 51.9567 18.5633 52.6917 17.6667 52.6917C16.77 52.6917 16 51.9583 16 51C16 50.0433 16.77 49.3083 17.6667 49.3083C18.5633 49.3083 19.3333 50.0417 19.3333 51Z"/>
</mask>
<path fill-rule="evenodd" clip-rule="evenodd" d="M47.6667 17.6667C47.6667 26.8717 40.205 34.3333 31 34.3333C21.795 34.3333 14.3333 26.8717 14.3333 17.6667C14.3333 8.46167 21.795 1 31 1C40.205 1 47.6667 8.46167 47.6667 17.6667ZM44.3333 17.6667C44.3333 21.2029 42.9286 24.5943 40.4281 27.0948C37.9276 29.5952 34.5362 31 31 31C27.4638 31 24.0724 29.5952 21.5719 27.0948C19.0714 24.5943 17.6667 21.2029 17.6667 17.6667C17.6667 14.1304 19.0714 10.7391 21.5719 8.23858C24.0724 5.73809 27.4638 4.33333 31 4.33333C34.5362 4.33333 37.9276 5.73809 40.4281 8.23858C42.9286 10.7391 44.3333 14.1304 44.3333 17.6667ZM20.8567 39.0917L20.875 39.1283L21 39.3733H40.5817C40.9633 38.65 41.8283 37.4967 42.6667 37.6883C44.55 38.1167 46.4467 38.7133 48.2683 39.4483L48.3233 39.4217L48.3417 39.4583L48.355 39.4833C55.2133 42.27 61 46.9933 61 51.95V61H1V51.95C1 45.6583 10.3267 39.7383 19.3333 37.6883C20.0683 37.5217 20.505 38.3883 20.8567 39.0917ZM45.5067 41.9717C44.7917 41.7214 44.0685 41.4951 43.3383 41.2933L42.595 42.7067H18.9883L18.2983 41.395L17.6983 41.575C17.6867 41.685 17.6767 41.8083 17.6717 41.9483C17.65 42.5233 17.6933 43.205 17.7883 43.8983C17.8858 44.6215 18.0419 45.3355 18.255 46.0333C19.4258 46.172 20.5099 46.72 21.3159 47.5804C22.1218 48.4409 22.5978 49.5585 22.6598 50.7358C22.7218 51.9131 22.3657 53.0745 21.6545 54.0148C20.9433 54.9551 19.9228 55.6138 18.773 55.8747C17.6233 56.1355 16.4183 55.9817 15.371 55.4404C14.3236 54.8991 13.5013 54.0051 13.0491 52.9163C12.5969 51.8274 12.544 50.6139 12.8998 49.4899C13.2555 48.3658 13.997 47.4037 14.9933 46.7733L14.98 46.7267C14.7579 45.9474 14.5925 45.1531 14.485 44.35C14.4143 43.8369 14.3676 43.3208 14.345 42.8033C12.285 43.6833 10.3633 44.7467 8.75333 45.92C5.55 48.26 4.33333 50.4467 4.33333 51.95V57.6667H57.6667V51.95C57.6667 50.445 56.45 48.2583 53.2467 45.9217C51.8499 44.9173 50.3623 44.0458 48.8033 43.3183C48.7355 44.2216 48.5973 45.1182 48.39 46H49.3333C49.6428 46.0002 49.946 46.0865 50.2092 46.2493C50.4724 46.412 50.685 46.6449 50.8233 46.9217L52.49 50.255C52.6067 50.4867 52.6667 50.7417 52.6667 51V54.3333C52.6667 54.7754 52.4911 55.1993 52.1785 55.5118C51.866 55.8244 51.442 56 51 56H47.6667V52.6667H49.3333V51.3933L48.3033 49.3333H43.6967L42.6667 51.3933V52.6667H44.3333V56H41C40.558 56 40.134 55.8244 39.8215 55.5118C39.5089 55.1993 39.3333 54.7754 39.3333 54.3333V51C39.3333 50.7417 39.3933 50.4867 39.51 50.255L41.1767 46.9217C41.315 46.6449 41.5276 46.412 41.7908 46.2493C42.0539 46.0865 42.3572 46.0002 42.6667 46H44.9367C44.9567 45.9333 44.9783 45.8667 44.9983 45.7933C45.155 45.2583 45.295 44.5933 45.39 43.9C45.4833 43.2133 45.5267 42.5417 45.5067 41.9717ZM19.3333 51C19.3333 51.9567 18.5633 52.6917 17.6667 52.6917C16.77 52.6917 16 51.9583 16 51C16 50.0433 16.77 49.3083 17.6667 49.3083C18.5633 49.3083 19.3333 50.0417 19.3333 51Z" fill="#677294"/>
<path fill-rule="evenodd" clip-rule="evenodd" d="M47.6667 17.6667C47.6667 26.8717 40.205 34.3333 31 34.3333C21.795 34.3333 14.3333 26.8717 14.3333 17.6667C14.3333 8.46167 21.795 1 31 1C40.205 1 47.6667 8.46167 47.6667 17.6667ZM44.3333 17.6667C44.3333 21.2029 42.9286 24.5943 40.4281 27.0948C37.9276 29.5952 34.5362 31 31 31C27.4638 31 24.0724 29.5952 21.5719 27.0948C19.0714 24.5943 17.6667 21.2029 17.6667 17.6667C17.6667 14.1304 19.0714 10.7391 21.5719 8.23858C24.0724 5.73809 27.4638 4.33333 31 4.33333C34.5362 4.33333 37.9276 5.73809 40.4281 8.23858C42.9286 10.7391 44.3333 14.1304 44.3333 17.6667ZM20.8567 39.0917L20.875 39.1283L21 39.3733H40.5817C40.9633 38.65 41.8283 37.4967 42.6667 37.6883C44.55 38.1167 46.4467 38.7133 48.2683 39.4483L48.3233 39.4217L48.3417 39.4583L48.355 39.4833C55.2133 42.27 61 46.9933 61 51.95V61H1V51.95C1 45.6583 10.3267 39.7383 19.3333 37.6883C20.0683 37.5217 20.505 38.3883 20.8567 39.0917ZM45.5067 41.9717C44.7917 41.7214 44.0685 41.4951 43.3383 41.2933L42.595 42.7067H18.9883L18.2983 41.395L17.6983 41.575C17.6867 41.685 17.6767 41.8083 17.6717 41.9483C17.65 42.5233 17.6933 43.205 17.7883 43.8983C17.8858 44.6215 18.0419 45.3355 18.255 46.0333C19.4258 46.172 20.5099 46.72 21.3159 47.5804C22.1218 48.4409 22.5978 49.5585 22.6598 50.7358C22.7218 51.9131 22.3657 53.0745 21.6545 54.0148C20.9433 54.9551 19.9228 55.6138 18.773 55.8747C17.6233 56.1355 16.4183 55.9817 15.371 55.4404C14.3236 54.8991 13.5013 54.0051 13.0491 52.9163C12.5969 51.8274 12.544 50.6139 12.8998 49.4899C13.2555 48.3658 13.997 47.4037 14.9933 46.7733L14.98 46.7267C14.7579 45.9474 14.5925 45.1531 14.485 44.35C14.4143 43.8369 14.3676 43.3208 14.345 42.8033C12.285 43.6833 10.3633 44.7467 8.75333 45.92C5.55 48.26 4.33333 50.4467 4.33333 51.95V57.6667H57.6667V51.95C57.6667 50.445 56.45 48.2583 53.2467 45.9217C51.8499 44.9173 50.3623 44.0458 48.8033 43.3183C48.7355 44.2216 48.5973 45.1182 48.39 46H49.3333C49.6428 46.0002 49.946 46.0865 50.2092 46.2493C50.4724 46.412 50.685 46.6449 50.8233 46.9217L52.49 50.255C52.6067 50.4867 52.6667 50.7417 52.6667 51V54.3333C52.6667 54.7754 52.4911 55.1993 52.1785 55.5118C51.866 55.8244 51.442 56 51 56H47.6667V52.6667H49.3333V51.3933L48.3033 49.3333H43.6967L42.6667 51.3933V52.6667H44.3333V56H41C40.558 56 40.134 55.8244 39.8215 55.5118C39.5089 55.1993 39.3333 54.7754 39.3333 54.3333V51C39.3333 50.7417 39.3933 50.4867 39.51 50.255L41.1767 46.9217C41.315 46.6449 41.5276 46.412 41.7908 46.2493C42.0539 46.0865 42.3572 46.0002 42.6667 46H44.9367C44.9567 45.9333 44.9783 45.8667 44.9983 45.7933C45.155 45.2583 45.295 44.5933 45.39 43.9C45.4833 43.2133 45.5267 42.5417 45.5067 41.9717ZM19.3333 51C19.3333 51.9567 18.5633 52.6917 17.6667 52.6917C16.77 52.6917 16 51.9583 16 51C16 50.0433 16.77 49.3083 17.6667 49.3083C18.5633 49.3083 19.3333 50.0417 19.3333 51Z" stroke="#677294" stroke-width="0.6" mask="url(#path-1-outside-1_600_1638)"/>
</svg>
