<svg width="62" height="60" viewBox="0 0 62 60" fill="none" xmlns="http://www.w3.org/2000/svg">
<path d="M45.8073 28.7865C45.8088 25.6101 44.7983 22.5166 42.9235 19.9598L42.7078 19.6656L42.3618 19.7812L31.5954 23.3795L31.5949 23.3796C31.2085 23.5092 30.7909 23.5092 30.4046 23.3796L30.4041 23.3795L19.6376 19.7812L19.2914 19.6655L19.0757 19.9601C17.6878 21.8559 16.7666 24.0556 16.3876 26.3786C16.0086 28.7015 16.1825 31.0818 16.895 33.3242C17.6075 35.5666 18.8385 37.6073 20.4871 39.2789C22.1358 40.9505 24.1552 42.2052 26.3797 42.94C28.6042 43.6747 30.9703 43.8685 33.2838 43.5052C35.5973 43.1419 37.7919 42.2321 39.6878 40.8505C41.5836 39.469 43.1265 37.6551 44.1902 35.558C45.2538 33.461 45.8079 31.1404 45.8073 28.7865ZM45.8073 28.7865L45.3073 28.7863L45.8073 28.7862C45.8073 28.7863 45.8073 28.7864 45.8073 28.7865ZM31.5949 0.597172L31.7427 0.156303L31.5949 0.597176L59.869 10.0782V10.0933L60.2101 10.2076C60.585 10.3332 60.9116 10.5745 61.1433 10.8978C61.3751 11.2212 61.5 11.6101 61.5 12.0094C61.5 12.4087 61.3751 12.7976 61.1433 13.121C60.9116 13.4443 60.585 13.6856 60.2101 13.8112L60.2101 13.8112L47.0591 18.2191L46.4627 18.419L46.7919 18.9549C49.3783 23.1646 50.1998 28.2347 49.0758 33.0532C47.9518 37.8717 44.9744 42.0442 40.7976 44.6565L39.9588 45.1811L40.8787 45.5453C46.1237 47.6218 50.6984 51.3799 54.0366 56.5309C54.3003 56.9523 54.3892 57.4615 54.2837 57.9486C54.1779 58.4369 53.8855 58.8628 53.4709 59.1349C53.0563 59.4069 52.5525 59.5036 52.0681 59.4047C51.5847 59.306 51.1584 59.0201 50.8815 58.6076C46.3025 51.5429 39.0556 47.477 30.9997 47.477C22.9426 47.477 15.6947 51.5442 11.1159 58.6109L11.1158 58.6109L11.1121 58.6168C10.9784 58.8296 10.8042 59.0133 10.5996 59.1574C10.395 59.3015 10.1642 59.4031 9.92048 59.4566C9.67681 59.51 9.42504 59.5142 9.17977 59.4688C8.93449 59.4235 8.70047 59.3296 8.49132 59.1923C8.28216 59.0551 8.10201 58.8773 7.96146 58.6691C7.8209 58.4609 7.72278 58.2265 7.67294 57.9795C7.6231 57.7325 7.62255 57.478 7.67133 57.2308C7.72011 56.9837 7.81723 56.7488 7.95689 56.54L7.95694 56.54L7.9609 56.5339C11.2996 51.3809 15.8572 47.6222 21.1203 45.5455L22.0424 45.1817L21.2017 44.6564C17.0209 42.044 14.0406 37.8688 12.9165 33.0468C11.7923 28.2247 12.6164 23.1511 15.2074 18.9402L15.5372 18.4041L14.9404 18.2041L4.92807 14.8487L4.26919 14.6279V15.3228V35.9828C4.26919 36.4874 4.06992 36.9707 3.71615 37.3266C3.36249 37.6823 2.88346 37.8817 2.38459 37.8817C1.88573 37.8817 1.4067 37.6823 1.05304 37.3266C0.699274 36.9707 0.5 36.4874 0.5 35.9828V11.9944V11.9944C0.499971 11.5951 0.624841 11.2062 0.856502 10.8829C1.08813 10.5596 1.41464 10.3182 1.78943 10.1925C1.78943 10.1925 1.78944 10.1925 1.78944 10.1925L30.4046 0.597176L30.2456 0.123118L30.4046 0.597172C30.7909 0.467609 31.2085 0.467609 31.5949 0.597172ZM30.8407 19.536L30.9997 19.5894L31.1587 19.536L52.2326 12.4684L53.6461 11.9944L52.2326 11.5203L31.1587 4.45275L30.9997 4.39943L30.8407 4.45275L9.76689 11.5203L8.35339 11.9944L9.76689 12.4684L30.8407 19.536Z" fill="#677294" stroke="#677294"/>
</svg>
