<svg width="64" height="64" viewBox="0 0 64 64" fill="none" xmlns="http://www.w3.org/2000/svg">
<path d="M32 62.0001C46.8247 62.0001 58.8421 49.9828 58.8421 35.158C58.8421 20.3333 46.8247 8.31592 32 8.31592C17.1753 8.31592 5.15789 20.3333 5.15789 35.158C5.15789 49.9828 17.1753 62.0001 32 62.0001Z" stroke="#677294" stroke-width="4" stroke-linejoin="round"/>
<path d="M46.2105 28.8421L43.0526 30.4211L39.8947 28.8421M24.1053 28.8421L20.9474 30.4211L17.7895 28.8421M22.5263 2C28.8421 2 31.6053 6.73684 32 8.31579C32.1311 6.73684 32.9474 3.26316 35.1579 2M44.6316 48.5789C44.6316 48.5789 44.6316 53.3158 32 53.3158C19.3684 53.3158 19.3684 48.5789 19.3684 48.5789M2 32V38.3158M62 32V38.3158" stroke="#677294" stroke-width="4" stroke-linecap="round" stroke-linejoin="round"/>
</svg>
